<svg width="24" height="24" viewBox="0 0 24 24" fill="none" xmlns="http://www.w3.org/2000/svg">
<path d="M12.8038 14.306L13.2987 13.8109L12.9311 13.4434L12.4729 13.6891L12.8038 14.306ZM20 21.5L19.5051 21.995C19.7785 22.2683 20.2216 22.2683 20.495 21.995L20 21.5ZM22.5 19L22.995 19.495C23.2674 19.2226 23.2685 18.7813 22.9975 18.5075L22.5 19ZM15.3303 11.7574L14.7103 11.4324L14.4725 11.886L14.8328 12.2499L15.3303 11.7574ZM4.5 6.5L4.99497 6.00503C4.83295 5.843 4.60189 5.77053 4.37636 5.81101C4.15083 5.85148 3.95939 5.99976 3.86381 6.20801L4.5 6.5ZM8.5 10.5L8.00503 10.995C8.27839 11.2683 8.72161 11.2683 8.99497 10.995L8.5 10.5ZM11.5 7.5L11.995 7.99497C12.2628 7.72718 12.269 7.29496 12.0091 7.01953L11.5 7.5ZM7.68838 3.46148L7.41849 2.8156C7.20643 2.90421 7.05138 3.09127 7.00364 3.31608C6.9559 3.54089 7.02156 3.77482 7.17931 3.94195L7.68838 3.46148ZM10 14.3C7.07289 14.3 4.7 11.9271 4.7 9H3.3C3.3 12.7003 6.29969 15.7 10 15.7V14.3ZM10 3.7C12.9271 3.7 15.3 6.07289 15.3 9H16.7C16.7 5.29969 13.7003 2.3 10 2.3V3.7ZM12.3089 14.801L19.5051 21.995L20.4949 21.005L13.2987 13.8109L12.3089 14.801ZM20.495 21.995L22.995 19.495L22.005 18.505L19.505 21.005L20.495 21.995ZM22.9975 18.5075L15.8277 11.2649L14.8328 12.2499L22.0025 19.4925L22.9975 18.5075ZM12.4729 13.6891C11.732 14.0865 10.9097 14.3 10 14.3V15.7C11.1387 15.7 12.1885 15.4303 13.1347 14.9228L12.4729 13.6891ZM15.3 9C15.3 9.89132 15.0933 10.7017 14.7103 11.4324L15.9502 12.0824C16.439 11.1501 16.7 10.1166 16.7 9H15.3ZM4.00503 6.99497L8.00503 10.995L8.99497 10.005L4.99497 6.00503L4.00503 6.99497ZM8.99497 10.995L11.995 7.99497L11.005 7.00503L8.00503 10.005L8.99497 10.995ZM7.95826 4.10736C8.58574 3.84517 9.27503 3.7 10 3.7V2.3C9.08645 2.3 8.21391 2.48323 7.41849 2.8156L7.95826 4.10736ZM12.0091 7.01953L8.19744 2.98102L7.17931 3.94195L10.9909 7.98047L12.0091 7.01953ZM4.7 9C4.7 8.18533 4.83766 7.44244 5.13619 6.79199L3.86381 6.20801C3.46374 7.07967 3.3 8.03024 3.3 9H4.7Z" fill="#616161"/>
</svg>
